<svg width="150" height="30" xmlns="http://www.w3.org/2000/svg" version="1.1">
 <g>
  <title>Layer 1</title>
  <g id="surface1">
   <path d="m5.98513,5.57488c-0.37891,0.38282 -0.19532,1.67969 0.33203,2.29688c0.41406,0.48437 1.09375,0.80859 1.94531,0.92969c0.20313,0.02734 0.38281,0.08984 0.39453,0.13671c0.02344,0.05079 -0.07422,0.65235 -0.20703,1.33985c-0.13672,0.6914 -0.25,1.32812 -0.25,1.42578c0,0.23047 0.10547,0.23047 1.20703,0.01562c1.86719,-0.38281 3.19922,-0.50781 5.75391,-0.5625c1.48828,-0.03515 1.64062,-0.02734 1.45312,0.0625c-0.10937,0.0625 -0.3164,0.125 -0.44922,0.14454c-0.6914,0.125 -2.12109,0.41015 -2.66796,0.53515c-1.69532,0.37891 -4.20704,1.22656 -5.24219,1.76563c-0.54688,0.28515 -0.51172,0.22265 -0.81641,1.7539c-0.21484,1.125 -0.25,1.45703 -0.14453,1.45703c0.03516,0 0.41406,-0.25781 0.85156,-0.57031c1.12891,-0.8164 2.13282,-1.45312 2.92969,-1.86328c0.67969,-0.34766 2.42188,-1.14453 2.83984,-1.29687c0.11719,-0.03907 0.40625,-0.15235 0.65625,-0.25c0.75,-0.28125 2.76954,-0.75391 2.76954,-0.64454c0,0.03516 -0.56641,0.34766 -2.36719,1.28907c-0.44922,0.23047 -0.99219,0.54297 -1.21094,0.67968c-0.22266,0.14844 -0.48437,0.30469 -0.59766,0.36719c-0.78906,0.4375 -3.0039,2.14844 -4.13281,3.19141c-1.70312,1.57031 -2.50781,2.45312 -2.63281,2.89453c-0.17188,0.61719 -0.55859,2.85937 -0.57422,3.33594l-0.01172,0.52734l0.55469,0.01953c0.97266,0.04297 1.1875,-0.10156 1.86719,-1.23828c1.80078,-3.04297 3.59375,-5.28906 5.98828,-7.51562c1.15234,-1.06641 2.89453,-2.32422 3.23047,-2.32422c0.13672,0 -0.09766,0.29297 -0.82422,1c-1.48438,1.44922 -2.34375,2.5039 -3.5,4.28906c-1.08594,1.67969 -2.55469,4.9375 -2.49219,5.55469l0.02344,0.21484l0.96094,0.01953c1.08203,0.02344 1.14062,0 1.27343,-0.45703c0.04297,-0.13672 0.25,-1.11719 0.46485,-2.16406c0.21484,-1.04688 0.42968,-1.98047 0.46875,-2.07813c0.08593,-0.16797 0.12109,-0.17187 0.70703,-0.1875c1.87109,-0.05468 3.24219,-0.16015 3.91406,-0.29687c1.92578,-0.39453 3.44141,-1.16406 4.58984,-2.32422c0.53907,-0.53906 1.22657,-1.43359 1.22657,-1.59375c0,-0.03906 0.03515,-0.10938 0.07422,-0.15234c0.11718,-0.11719 0.39062,-0.8086 0.57031,-1.44141c0.13672,-0.49219 0.15234,-0.71484 0.15234,-2.01172c0,-1.67578 -0.04297,-1.91016 -0.5,-2.875c-0.26172,-0.54687 -0.41015,-0.75 -0.91406,-1.25391c-0.94922,-0.96484 -1.89844,-1.49218 -3.43359,-1.92187c-1.11719,-0.3125 -2.21485,-0.35938 -8.46875,-0.35938c-5.45704,0 -5.62891,0.00782 -5.76172,0.13672zm0,0" fill-rule="nonzero" fill="#ffffff" id="svg_1"/>
   <path d="m116.42263,6.73504c-0.01953,0.07031 -0.02735,0.29687 -0.02735,0.50391c0,0.21093 0.00782,3.96093 0.01953,8.33984l0.01563,7.95703l1.02344,-0.01953l1.01953,-0.01953l0,-16.84375l-1.01172,-0.02344c-0.92969,-0.01172 -1.01953,-0.00781 -1.03906,0.10547zm0,0" fill-rule="nonzero" fill="#ffffff" id="svg_2"/>
   <path d="m87.83278,15.55926l0,7.97656l1.0586,-0.01953l1.05078,-0.01953l0.02344,-2.46875l0.01171,-2.47656l2.65235,-0.03125c2.30469,-0.03125 2.72656,-0.05079 3.26953,-0.17579c1.84766,-0.40234 3.04687,-1.28906 3.73047,-2.74609c0.41015,-0.86328 0.49219,-1.30859 0.49219,-2.67578c0,-1.14844 -0.00782,-1.23828 -0.19922,-1.82813c-0.54688,-1.66406 -1.89063,-2.8125 -3.81641,-3.27734l-0.76172,-0.17969l-3.7539,-0.03125l-3.75782,-0.03125l0,7.98438zm7.59375,-5.83594c1.79297,0.46484 2.65235,1.52344 2.65235,3.26172c0,1.84375 -0.88672,3.00391 -2.62891,3.44531c-0.46484,0.1211 -0.79687,0.13281 -2.98047,0.13281l-2.45703,0l-0.01953,-3.45703c-0.01563,-2.72656 0.00391,-3.48047 0.06641,-3.52343c0.05078,-0.03516 1.15234,-0.04688 2.44531,-0.03516c2.125,0.02734 2.41015,0.04297 2.92187,0.17578zm0,0" fill-rule="nonzero" fill="#ffffff" id="svg_3"/>
   <path d="m33.0945,11.44988c-2.79687,0.33203 -4.82031,2.16797 -5.27734,4.80078c-0.14453,0.82422 -0.08985,2.33594 0.11328,3.07813c0.55859,2.03125 2.02734,3.47266 4.125,4.04297c0.61719,0.17187 0.80859,0.1875 1.80078,0.1875c1.16797,0 1.71875,-0.08985 2.59766,-0.44531c1.375,-0.53907 2.41406,-1.5586 3.0664,-2.98047c0.60157,-1.31641 0.69141,-3.27344 0.21485,-4.78125c-0.23047,-0.74219 -0.78125,-1.59766 -1.44922,-2.26172c-0.88281,-0.875 -2.11719,-1.44922 -3.4961,-1.6211c-0.55859,-0.07031 -1.24609,-0.07812 -1.69531,-0.01953zm1.82813,1.92578c0.63672,0.15235 1.30078,0.53125 1.79297,1.01172c0.47656,0.47657 0.77734,0.96485 1.03125,1.72657c0.16015,0.48437 0.17187,0.58203 0.14453,1.52343c-0.03907,1.20703 -0.16407,1.67188 -0.66407,2.4336c-0.375,0.57422 -0.63671,0.83203 -1.23046,1.18359c-0.64454,0.39063 -1.00391,0.48828 -1.9336,0.52344c-0.63672,0.02734 -0.93359,0.0039 -1.28125,-0.08594c-1.73828,-0.44922 -2.8125,-1.88281 -2.94922,-3.95703c-0.0625,-0.8125 0.08203,-1.51172 0.49219,-2.35547c0.25,-0.50781 0.39453,-0.71484 0.76953,-1.07031c0.51172,-0.46875 1.20313,-0.84375 1.80078,-0.95313c0.53125,-0.10547 1.54297,-0.09375 2.02735,0.01953zm0,0" fill-rule="nonzero" fill="#ffffff" id="svg_4"/>
   <path d="m70.14138,11.47723c-0.90235,0.1289 -1.98047,0.5664 -2.67969,1.07422c-0.64063,0.46875 -1.35156,1.30859 -1.68359,1.98828c-0.48047,0.97656 -0.59766,1.4414 -0.63672,2.63281c-0.05078,1.1875 0.03515,1.82422 0.33984,2.65625c0.73047,2.04297 2.42969,3.36719 4.72656,3.70312c1.61328,0.22657 3.51172,-0.1875 4.8125,-1.0625c0.42969,-0.28515 0.90235,-0.75 0.90235,-0.8789c-0.00782,-0.0586 -0.19532,-0.30469 -0.41797,-0.55078c-0.22656,-0.2461 -0.41406,-0.46875 -0.41406,-0.50391c0,-0.13281 -0.25,-0.03516 -0.62891,0.25781c-1.19141,0.92188 -2.72266,1.27344 -4.18359,0.96875c-1.32422,-0.27734 -2.42969,-1.28125 -2.875,-2.60547c-0.07422,-0.22265 -0.13672,-0.5 -0.13672,-0.60937c0,-0.17578 0.02734,-0.20313 0.22656,-0.23828c0.12109,-0.01953 2.25,-0.03516 4.72266,-0.03516l4.5039,-0.0039l-0.01562,-0.92969c-0.04297,-2.91797 -1.22657,-4.82422 -3.46094,-5.60156c-0.83984,-0.28907 -2.14844,-0.40235 -3.10156,-0.26172zm2.1289,1.82812c0.57813,0.15235 1.0625,0.41797 1.48438,0.81641c0.67969,0.64062 1.1289,1.72265 1.0664,2.52344c-0.00781,0.07031 -0.8125,0.08984 -3.78125,0.08984c-3.20703,0 -3.78125,-0.01172 -3.8164,-0.09375c-0.0625,-0.15234 0.16015,-0.92188 0.41015,-1.42188c0.26172,-0.54296 1.03907,-1.36718 1.5,-1.60156c0.57032,-0.29687 1.08985,-0.41015 1.94141,-0.41015c0.50391,-0.00782 0.94922,0.03515 1.19531,0.09765zm0,0" fill-rule="nonzero" fill="#ffffff" id="svg_5"/>
   <path d="m124.42653,11.50457c-1.68359,0.36719 -2.69922,1.25391 -2.9375,2.55859c-0.28125,1.55079 0.3125,2.79297 1.65625,3.44922c0.28516,0.14844 1.12891,0.45703 1.8711,0.69922c1.69531,0.5625 2.17968,0.77735 2.5039,1.14453c0.53516,0.58985 0.51953,1.50391 -0.01953,2.00391c-0.61719,0.5625 -2.02344,0.69531 -3.48437,0.32812c-0.55078,-0.14062 -1.73828,-0.72265 -2.10938,-1.04296c-0.16015,-0.13672 -0.30469,-0.24219 -0.32031,-0.22657c-0.08984,0.09766 -0.72656,1.42578 -0.72656,1.52344c0,0.15234 0.84375,0.71484 1.48047,0.98438c0.26562,0.11328 0.84765,0.29687 1.28125,0.41796c0.72656,0.1875 0.91015,0.20704 1.8789,0.20704c1.23047,0 1.76563,-0.11329 2.67969,-0.55469c0.99609,-0.48047 1.60547,-1.30469 1.77344,-2.38672c0.14453,-0.95313 -0.15235,-2.03516 -0.72266,-2.61719c-0.57422,-0.57812 -1.16406,-0.86719 -2.97656,-1.46484c-2.0586,-0.67969 -2.58203,-0.99219 -2.76172,-1.66797c-0.10547,-0.38281 -0.04297,-0.67578 0.19922,-1.01172c0.67969,-0.9375 2.84765,-0.92578 4.74219,0.02734c0.25781,0.12891 0.48046,0.22657 0.48437,0.21485c0.08594,-0.10547 0.73438,-1.5 0.73438,-1.5625c0,-0.10156 -0.84375,-0.51172 -1.5586,-0.75391c-1.05859,-0.35547 -2.72656,-0.48047 -3.66797,-0.26953zm0,0" fill-rule="nonzero" fill="#ffffff" id="svg_6"/>
   <path d="m137.64528,11.46941c-0.66406,0.07422 -1.19922,0.23438 -1.84765,0.5625c-1.24219,0.61719 -1.96094,1.32813 -2.57032,2.52344c-0.51171,1.00391 -0.61718,1.51563 -0.625,2.94531c-0.0039,1.06641 0.01563,1.27344 0.15235,1.76563c0.52734,1.80859 1.53125,3.03125 3.08984,3.74219c1.84375,0.84765 4.3711,0.73828 6.17578,-0.27735c0.53516,-0.29687 1.41407,-0.98828 1.41407,-1.11328c0,-0.05078 -0.22266,-0.33203 -0.5,-0.63281c-0.26954,-0.29688 -0.50391,-0.55469 -0.51172,-0.56641c-0.01172,-0.01562 -0.16407,0.10157 -0.35157,0.25391c-0.91015,0.76953 -1.83593,1.11719 -3.08203,1.17187c-0.95703,0.05079 -1.57422,-0.0664 -2.23828,-0.42187c-0.53125,-0.27734 -1.18359,-0.88672 -1.48828,-1.39844c-0.26953,-0.45312 -0.54687,-1.20703 -0.55469,-1.5l0,-0.1914l4.75,-0.01563l4.75782,-0.01953l-0.01172,-0.66016c-0.01563,-0.74609 -0.16016,-1.85156 -0.32032,-2.46093c-0.26171,-0.9961 -0.93359,-2.04297 -1.72265,-2.6836c-0.46485,-0.37109 -1.3711,-0.78125 -2.03516,-0.92187c-0.60547,-0.1211 -1.85937,-0.17969 -2.48047,-0.10157zm2.03516,1.83594c0.23437,0.05469 0.56641,0.17188 0.72656,0.25c0.44531,0.23047 1.14453,0.875 1.3711,1.26953c0.34765,0.60157 0.59765,1.60157 0.44921,1.82813c-0.03125,0.0625 -0.90625,0.08203 -3.73046,0.08203c-2.02735,0 -3.72657,-0.02734 -3.77344,-0.05469c-0.14063,-0.08984 0.01953,-0.71094 0.3789,-1.44922c0.23829,-0.49218 0.40235,-0.71875 0.70704,-1.0039c0.47265,-0.4375 1.08984,-0.78125 1.64062,-0.91407c0.54297,-0.13281 1.68359,-0.13281 2.23047,-0.00781zm0,0" fill-rule="nonzero" fill="#ffffff" id="svg_7"/>
   <path d="m42.407,11.55926c0,0.04297 0.14453,0.45703 0.32031,0.91406c0.44922,1.16406 2.08985,5.58594 3.11329,8.38672c0.47265,1.29687 0.89453,2.42578 0.92968,2.51172c0.0625,0.15234 0.08985,0.16015 1.16407,0.16015l1.10156,0l0.21094,-0.61328c0.12109,-0.33203 0.40234,-1.14843 0.64062,-1.8164c0.68359,-1.92578 1.14844,-3.26172 1.64063,-4.67578c0.24218,-0.73047 0.52343,-1.54688 0.62109,-1.82422c0.09766,-0.28516 0.20312,-0.48438 0.23437,-0.44922c0.03125,0.02734 0.26563,0.64453 0.51563,1.37109c0.25391,0.71875 0.53906,1.53125 0.63672,1.80078c0.08984,0.26563 0.51172,1.47266 0.92578,2.67188c0.41797,1.19922 0.86719,2.48047 0.99219,2.83984l0.22656,0.66016l1.10156,0.01953l1.10938,0.01562l0.125,-0.32812c0.30859,-0.81641 0.5039,-1.35156 1.96484,-5.35938c0.5,-1.35156 1.20703,-3.25781 1.57031,-4.22656c0.36719,-0.96875 0.6875,-1.83203 0.70703,-1.91406c0.02735,-0.13672 0,-0.14453 -0.54687,-0.1875c-0.76172,-0.0625 -1.46094,-0.05469 -1.54297,0.00781c-0.04297,0.02735 -0.14453,0.28516 -0.23047,0.57031c-0.35156,1.12891 -2.85156,8.64844 -2.97656,8.94141l-0.12891,0.3125l-0.10547,-0.24609c-0.0625,-0.12891 -0.80468,-2.33594 -1.65625,-4.88672c-0.85156,-2.55469 -1.55859,-4.65625 -1.57031,-4.67188c-0.02734,-0.04687 -1.93359,-0.09375 -2.10547,-0.05468c-0.10937,0.03515 -0.1875,0.125 -0.25,0.33984c-0.08984,0.29297 -2.90625,8.81641 -3.0664,9.25391c-0.04297,0.125 -0.09766,0.23046 -0.125,0.23046c-0.07032,0 -0.26953,-0.55468 -1.28907,-3.60546c-0.51953,-1.54688 -1.19531,-3.5625 -1.50781,-4.47657l-0.5625,-1.67968l-0.30469,-0.04297c-0.58593,-0.08203 -1.88281,-0.04688 -1.88281,0.05078zm0,0" fill-rule="nonzero" fill="#ffffff" id="svg_8"/>
   <path d="m79.07106,11.50848c-0.04687,0.02343 -0.0625,2.07422 -0.05468,6.01172l0.01562,5.97656l2.04688,0l0.03515,-3.4336c0.03516,-3.30468 0.04297,-3.44531 0.1875,-3.8789c0.33985,-1 1.10938,-1.92969 1.90235,-2.30469c0.39062,-0.1875 1.0664,-0.34375 1.80859,-0.43359l0.39453,-0.04297l0,-1.95313l-0.57422,0.03907c-0.3125,0.02734 -0.74218,0.09765 -0.94922,0.16015c-0.96093,0.27735 -1.86718,0.97656 -2.39453,1.83594c-0.14062,0.22266 -0.28515,0.41016 -0.3125,0.41016c-0.03515,0 -0.07031,-0.53907 -0.07422,-1.19922l-0.02343,-1.19141l-0.96875,-0.00781c-0.53125,-0.00781 -0.9961,0 -1.03907,0.01172zm0,0" fill-rule="nonzero" fill="#ffffff" id="svg_9"/>
   <path d="m102.51247,11.51629c-0.00781,0.02734 -0.00781,1.91406 -0.00781,4.1875c0,4.59766 0.00781,4.71484 0.45703,5.64453c0.64453,1.35156 1.94531,2.14844 3.64062,2.23047c1.97266,0.10547 3.5586,-0.63281 4.5,-2.08594c0.14844,-0.23047 0.27344,-0.39062 0.27735,-0.34765c0,0.03515 0.00781,0.57421 0.01562,1.20703l0.01172,1.14453l1.0625,0.01953l1.05078,0.01953l0,-11.98437l-0.15234,-0.02735c-0.08984,-0.01562 -0.55859,-0.02734 -1.05078,-0.01953l-0.90235,0l-0.01171,3.22266c-0.00782,2.07812 -0.04297,3.38281 -0.09766,3.66797c-0.25781,1.42578 -1.16406,2.58984 -2.33594,3c-0.63672,0.21484 -1.94531,0.23046 -2.47656,0.02734c-0.85938,-0.33203 -1.43359,-0.94922 -1.73047,-1.84375c-0.11719,-0.34766 -0.13281,-0.75391 -0.16797,-4.22656l-0.03906,-3.84766l-1.01953,-0.02344c-0.56641,-0.01172 -1.02344,0 -1.02344,0.03516zm0,0" fill-rule="nonzero" fill="#ffffff" id="svg_10"/>
  </g>
 </g>

</svg>